<?xml version="1.0" standalone="no"?>
<!DOCTYPE svg PUBLIC "-//W3C//DTD SVG 20010904//EN"
 "http://www.w3.org/TR/2001/REC-SVG-20010904/DTD/svg10.dtd">
<svg version="1.0" xmlns="http://www.w3.org/2000/svg"
 width="1080.000000pt" height="1080.000000pt" viewBox="0 0 1080.000000 1080.000000"
 preserveAspectRatio="xMidYMid meet">

<g transform="translate(0.000000,1080.000000) scale(0.100000,-0.100000)"
fill="#000000" stroke="none">
<path d="M4952 10401 c-10 -6 -13 -35 -10 -117 3 -108 3 -109 28 -111 14 0 30
-1 36 -2 7 -1 -8 -65 -38 -163 -27 -90 -54 -183 -62 -208 -7 -25 -30 -101 -50
-170 -21 -69 -45 -152 -55 -185 l-16 -60 -63 -3 -62 -3 0 -114 0 -115 285 0
285 0 0 115 0 115 -66 0 -67 0 6 38 c3 20 10 49 16 65 l11 27 183 0 183 0 17
-53 c9 -30 17 -58 17 -63 0 -5 -27 -7 -61 -6 -33 2 -71 1 -85 -2 -25 -7 -25
-7 -22 -119 l3 -112 270 -3 c149 -1 311 1 360 5 l90 8 3 90 c4 133 4 133 -69
137 l-61 3 -53 165 c-62 192 -176 550 -212 665 -14 44 -33 103 -43 130 l-18
50 -333 2 c-184 2 -340 -1 -347 -6z m380 -366 c9 -27 31 -97 48 -155 17 -58
35 -115 40 -127 5 -11 6 -24 3 -27 -4 -3 -58 -6 -121 -6 -105 0 -114 1 -107
18 4 9 10 26 12 37 3 11 25 87 49 168 24 82 44 152 44 155 0 16 18 -18 32 -63z"/>
<path d="M7063 10167 c-14 -22 -75 -162 -80 -183 -4 -16 4 -24 36 -39 23 -10
41 -20 41 -22 0 -2 -23 -54 -51 -116 -28 -61 -56 -125 -64 -142 -7 -16 -28
-64 -47 -105 -19 -41 -61 -133 -93 -203 -32 -70 -62 -130 -66 -133 -4 -2 -27
2 -50 10 -24 8 -44 14 -45 13 -1 -1 -22 -49 -48 -106 -36 -80 -44 -106 -34
-113 7 -4 16 -8 20 -8 5 0 51 -20 104 -45 52 -25 97 -45 99 -45 3 0 42 -18 87
-39 117 -55 198 -91 204 -91 2 0 13 19 23 43 10 23 31 69 46 101 l27 59 -23
18 c-13 10 -29 19 -35 19 -6 0 -17 6 -23 14 -9 11 -2 35 34 110 25 53 45 100
45 104 0 5 6 16 13 26 13 18 16 18 61 -9 25 -15 51 -35 56 -45 19 -35 10 -92
-27 -184 -45 -114 -51 -214 -15 -282 76 -146 288 -237 408 -176 60 30 101 78
145 166 21 43 39 79 39 81 0 3 -97 45 -104 45 -3 0 -14 -17 -25 -39 -21 -41
-41 -54 -66 -45 -21 8 -19 53 6 120 40 107 17 224 -60 300 l-31 31 79 0 c127
-1 204 44 253 149 72 153 52 275 -62 382 -75 72 -148 112 -435 242 -314 142
-334 150 -342 137z m411 -427 c99 -47 125 -92 102 -180 -22 -85 -77 -126 -156
-117 -49 6 -140 45 -140 60 0 17 117 267 125 267 4 0 35 -13 69 -30z"/>
<path d="M2985 9837 c-148 -74 -285 -140 -302 -148 -18 -8 -33 -19 -33 -26 0
-6 18 -48 39 -93 22 -45 42 -87 44 -93 3 -9 13 -9 40 0 41 13 36 24 62 -137
61 -388 87 -551 95 -593 15 -71 14 -72 -40 -97 -27 -13 -50 -29 -50 -36 0 -23
90 -194 103 -194 7 0 98 42 202 93 105 52 213 105 242 118 29 13 52 29 53 34
0 6 -18 47 -40 93 -22 46 -40 87 -40 91 0 20 -28 17 -78 -7 -31 -14 -57 -21
-62 -16 -5 5 -12 32 -16 61 l-6 52 38 18 c22 10 41 21 42 26 2 4 8 7 13 7 6 0
60 25 122 55 l111 55 35 -32 c38 -35 51 -50 51 -58 0 -3 -31 -21 -70 -40 -38
-19 -70 -38 -70 -43 0 -4 22 -52 50 -106 l49 -99 118 58 c65 32 206 102 313
155 107 53 199 100 203 104 11 11 -84 201 -100 201 -7 0 -33 -10 -58 -22 l-46
-23 -77 80 c-42 44 -117 123 -166 175 -49 52 -135 142 -190 200 -56 58 -147
154 -203 213 -57 59 -104 107 -105 107 -2 0 -124 -60 -273 -133z m137 -296 c2
-5 57 -66 123 -136 66 -70 120 -131 120 -136 0 -13 -195 -108 -201 -98 -3 5
-9 35 -14 67 -5 31 -15 95 -23 142 -25 142 -28 170 -18 170 5 0 11 -4 13 -9z"/>
<path d="M1584 8866 c-33 -38 -35 -40 -147 -179 -45 -56 -92 -113 -104 -127
-12 -14 -68 -81 -124 -150 -56 -69 -118 -145 -139 -170 -139 -166 -210 -256
-210 -266 0 -6 19 -27 42 -45 23 -19 83 -68 132 -109 126 -104 176 -143 180
-139 1 2 37 46 79 97 43 52 77 97 77 101 0 7 -5 11 -103 90 -37 30 -67 56 -67
58 0 2 11 16 24 31 13 15 35 40 49 57 l25 29 35 -27 c19 -15 41 -32 49 -40 7
-7 49 -42 93 -77 44 -36 82 -67 85 -70 3 -3 59 -49 125 -102 66 -53 140 -115
165 -136 42 -38 44 -41 31 -65 -7 -13 -24 -36 -37 -50 -32 -34 -30 -47 8 -77
18 -14 54 -44 82 -67 27 -24 53 -43 57 -43 4 0 43 45 88 100 45 55 90 110 101
123 89 104 230 279 230 285 0 8 -13 20 -80 72 -25 19 -56 45 -70 58 l-25 22
-50 -56 -51 -56 -64 53 c-36 30 -67 56 -70 59 -3 3 -52 44 -110 90 -58 47
-111 91 -118 98 -8 7 -30 25 -50 40 -21 15 -43 32 -50 39 -7 7 -34 29 -60 50
-46 37 -71 63 -72 73 0 11 83 100 94 100 6 0 32 -18 56 -40 25 -22 62 -52 82
-66 l38 -27 21 27 c11 14 26 32 32 39 7 7 34 38 61 70 38 46 46 60 36 72 -6 8
-71 62 -143 122 -73 59 -145 120 -162 135 -16 15 -33 28 -36 28 -4 0 -20 -15
-35 -34z"/>
<path d="M9150 8801 c-30 -26 -68 -60 -85 -74 l-30 -25 23 -24 c29 -31 28 -33
-10 -48 -39 -16 -188 -81 -276 -121 -35 -16 -65 -29 -68 -29 -3 0 -124 -53
-259 -114 -121 -55 -113 -55 -154 -8 -20 23 -40 42 -44 42 -5 0 -46 -33 -91
-72 l-83 -73 46 -55 c25 -30 48 -57 51 -60 3 -3 30 -34 60 -70 30 -35 69 -79
85 -97 17 -17 50 -57 75 -87 25 -30 49 -55 53 -56 15 0 167 133 167 147 0 8
-6 20 -12 27 -31 32 -58 67 -58 75 0 9 108 56 114 50 96 -114 131 -155 136
-159 3 -3 26 -30 52 -61 l46 -55 -30 -50 c-17 -27 -32 -51 -35 -54 -4 -4 -64
60 -90 98 -8 12 -18 22 -22 22 -3 0 -17 -10 -31 -22 -14 -13 -51 -45 -83 -71
-31 -27 -57 -52 -57 -56 0 -13 454 -541 465 -541 11 0 165 140 165 150 0 4 -8
16 -17 28 -44 51 -53 62 -53 66 0 3 22 40 49 83 26 43 101 164 166 268 65 105
143 231 175 280 31 50 83 132 115 182 l57 93 -26 34 c-14 19 -31 40 -38 48 -7
7 -42 47 -78 88 -36 41 -67 77 -70 80 -3 3 -30 34 -60 70 -30 36 -59 70 -65
76 -5 6 -32 36 -59 67 -27 31 -52 57 -55 57 -3 0 -31 -22 -61 -49z m64 -433
c-19 -33 -187 -297 -201 -317 -2 -3 -16 9 -31 26 -88 98 -122 138 -122 144 0
6 47 28 225 107 131 57 141 60 129 40z"/>
<path d="M5105 8546 c-65 -18 -134 -90 -158 -166 -21 -66 -22 -186 -1 -259 16
-59 69 -141 106 -165 41 -27 110 -39 171 -32 145 18 225 163 198 356 -19 134
-70 224 -146 255 -50 21 -116 25 -170 11z m97 -153 c29 -35 41 -80 45 -168 5
-106 -13 -158 -57 -163 -72 -7 -118 215 -66 316 19 36 54 43 78 15z"/>
<path d="M5640 8536 c-41 -12 -130 -62 -130 -73 0 -4 48 -70 71 -97 4 -4 28 4
53 19 69 41 136 23 136 -36 0 -35 -13 -47 -112 -106 -45 -26 -108 -74 -139
-105 -53 -54 -56 -60 -63 -119 -3 -34 -5 -64 -3 -65 1 -2 90 -12 197 -23 107
-12 212 -23 232 -25 41 -4 38 -10 53 127 6 55 6 57 -17 57 -13 0 -47 3 -75 6
l-53 7 0 -31 c0 -17 -3 -33 -7 -35 -15 -7 -136 8 -140 18 -3 11 95 80 163 115
54 27 101 70 113 104 6 15 11 54 11 86 0 51 -4 64 -33 102 -23 30 -49 49 -87
65 -61 25 -104 27 -170 9z"/>
<path d="M4517 8446 c-56 -28 -102 -69 -123 -108 -8 -15 -14 -29 -14 -32 0 -3
23 -21 52 -40 l52 -35 23 34 c13 19 32 39 43 45 26 14 83 13 98 -2 27 -27 12
-64 -62 -156 -41 -51 -87 -118 -102 -149 -26 -55 -26 -62 -16 -121 6 -35 13
-67 16 -70 4 -3 28 -1 54 6 26 6 126 30 222 52 96 23 176 43 179 45 2 3 -5 43
-15 90 -21 94 -17 92 -104 71 l-55 -13 3 -36 c3 -34 2 -36 -35 -46 -70 -19
-103 -24 -103 -15 0 16 51 86 108 149 66 74 85 115 79 175 -11 114 -72 172
-186 177 -54 3 -75 -1 -114 -21z"/>
<path d="M6183 8426 c-23 -14 -60 -30 -82 -36 -43 -11 -47 -19 -35 -79 7 -31
7 -31 54 -25 l48 6 -33 -128 c-17 -71 -35 -142 -39 -157 -7 -30 -12 -31 -78
-11 -13 4 -19 -6 -27 -47 -7 -29 -8 -56 -4 -59 10 -9 286 -80 311 -80 15 0 22
11 31 44 15 61 14 66 -11 66 -13 0 -29 4 -37 9 -16 11 -11 39 59 311 22 85 40
160 40 167 0 13 -48 28 -115 38 -31 4 -49 0 -82 -19z"/>
<path d="M4198 8095 c-35 -19 -48 -44 -48 -90 0 -41 33 -79 78 -88 36 -7 93
22 110 57 39 79 -61 165 -140 121z"/>
<path d="M6515 8100 c-47 -19 -71 -81 -48 -127 17 -37 53 -57 100 -57 46 0 83
40 83 90 0 46 -14 70 -50 89 -32 17 -54 18 -85 5z"/>
<path d="M2938 7543 c7 -3 16 -2 19 1 4 3 -2 6 -13 5 -11 0 -14 -3 -6 -6z"/>
<path d="M3760 7540 c0 -5 7 -10 16 -10 8 0 12 5 9 10 -3 6 -10 10 -16 10 -5
0 -9 -4 -9 -10z"/>
<path d="M2855 7530 c-28 -7 -27 -8 13 -9 23 0 42 4 42 9 0 11 -11 11 -55 0z"/>
<path d="M3005 7530 c-33 -6 -26 -7 39 -9 44 0 77 1 75 3 -10 9 -78 12 -114 6z"/>
<path d="M3165 7530 c3 -5 13 -10 21 -10 8 0 14 5 14 10 0 6 -9 10 -21 10 -11
0 -17 -4 -14 -10z"/>
<path d="M3360 7530 c0 -5 6 -10 14 -10 8 0 18 5 21 10 3 6 -3 10 -14 10 -12
0 -21 -4 -21 -10z"/>
<path d="M3520 7530 c0 -5 7 -10 15 -10 8 0 15 5 15 10 0 6 -7 10 -15 10 -8 0
-15 -4 -15 -10z"/>
<path d="M3648 7523 c7 -3 16 -2 19 1 4 3 -2 6 -13 5 -11 0 -14 -3 -6 -6z"/>
<path d="M3688 7523 c7 -3 16 -2 19 1 4 3 -2 6 -13 5 -11 0 -14 -3 -6 -6z"/>
<path d="M2733 7493 c-33 -4 -43 -17 -20 -26 6 -3 -4 -3 -24 0 -48 7 -61 -20
-18 -37 16 -7 29 -18 30 -24 0 -6 4 -2 9 9 6 14 9 -5 9 -57 l1 -78 80 0 80 0
0 -50 0 -50 -40 0 c-22 0 -40 5 -40 10 0 6 -9 10 -21 10 -14 0 -19 -5 -16 -15
8 -18 -45 -45 -90 -45 -18 0 -33 -4 -33 -10 0 -5 -18 -10 -40 -10 l-40 0 0 40
0 40 -80 0 -80 0 0 40 0 40 -40 0 c-22 0 -40 5 -40 10 0 7 -7 7 -21 0 -18 -10
-20 -9 -17 7 2 10 11 17 21 17 9 -1 17 4 17 12 0 10 -13 7 -51 -10 -58 -27
-69 -36 -46 -36 10 0 17 -3 17 -8 0 -4 -18 -6 -40 -4 -22 2 -40 0 -40 -5 0 -4
-36 -28 -80 -52 -60 -33 -77 -47 -69 -57 6 -8 6 -14 0 -18 -5 -3 -11 -2 -13 3
-1 5 -12 3 -22 -5 -19 -14 -19 -14 2 -14 12 0 22 -4 22 -9 0 -4 -14 -7 -30 -5
-27 3 -31 0 -37 -27 -4 -22 -8 -27 -14 -17 -7 10 -12 10 -26 1 -10 -6 -17 -16
-16 -21 3 -13 -25 -37 -43 -37 -16 0 -143 -122 -176 -168 -13 -18 -22 -39 -21
-47 2 -9 0 -10 -3 -2 -8 16 -24 15 -24 -2 0 -7 -6 -19 -14 -25 -8 -7 -22 -26
-31 -44 -31 -61 -45 -82 -45 -72 0 6 -12 -10 -26 -34 -22 -35 -24 -45 -13 -53
11 -8 10 -9 -3 -4 -10 3 -18 1 -18 -4 0 -5 -6 -15 -14 -22 -21 -21 -46 -75
-46 -98 0 -11 -5 -19 -12 -18 -16 4 -80 -150 -73 -176 5 -17 4 -18 -4 -6 -9
13 -11 12 -11 -5 0 -12 -4 -25 -9 -30 -9 -11 -42 -116 -80 -260 -34 -124 -65
-483 -59 -675 l3 -115 40 -6 c22 -3 50 -11 62 -17 13 -7 23 -10 23 -8 0 3 17
-4 38 -15 74 -42 159 -109 215 -168 l56 -61 69 0 c77 0 152 -19 218 -56 33
-18 45 -21 49 -12 2 7 6 121 9 253 3 159 10 269 20 325 16 85 74 284 103 350
42 99 88 190 95 190 4 0 8 5 8 10 0 20 41 96 68 125 15 17 38 46 52 65 66 93
219 244 322 317 78 55 233 153 243 153 3 0 46 20 97 44 51 24 125 52 163 60
39 9 93 23 120 31 69 20 186 29 350 30 147 0 349 -14 340 -24 -3 -3 31 -16 77
-28 82 -23 125 -34 101 -26 -7 3 -13 9 -13 15 0 5 7 7 16 4 9 -3 20 -6 26 -6
6 0 8 -6 5 -13 -3 -8 6 -18 22 -24 14 -6 59 -25 99 -42 41 -17 86 -40 101 -50
15 -11 34 -21 42 -23 8 -2 16 -5 19 -8 3 -3 32 -23 64 -45 33 -22 65 -46 73
-53 11 -11 13 -11 13 0 0 7 6 4 12 -7 12 -21 55 -65 64 -65 3 0 32 -28 65 -62
33 -33 57 -54 53 -45 -3 10 -1 17 5 17 6 0 11 -11 11 -24 0 -15 13 -35 34 -54
19 -17 32 -32 30 -35 -3 -3 11 -18 31 -34 20 -15 52 -43 72 -60 19 -18 41 -33
49 -33 7 0 17 -6 21 -14 11 -19 165 -86 232 -101 108 -25 165 -27 257 -10 49
9 109 26 134 37 25 11 56 25 70 31 41 19 170 107 170 116 0 5 12 12 26 15 18
5 24 12 20 22 -3 8 -2 13 3 10 5 -3 28 16 51 42 109 122 166 182 174 182 5 0
18 10 30 23 12 12 48 40 81 62 33 22 68 47 77 56 10 8 38 25 63 38 40 20 43
24 35 46 -6 15 -6 27 0 30 6 4 10 -3 10 -14 0 -12 6 -21 13 -21 26 1 122 49
122 62 0 7 9 12 20 11 11 -1 24 5 29 14 6 11 10 12 15 4 6 -9 15 -9 37 0 16 6
38 13 49 15 77 17 105 24 140 34 22 6 67 14 100 18 39 5 59 12 58 20 -2 6 2
12 7 12 6 0 10 -3 10 -7 0 -5 80 -8 177 -8 215 -1 343 -9 373 -25 16 -8 30 -9
52 -1 38 13 38 13 38 2 0 -5 -6 -11 -12 -14 -7 -2 -2 -2 10 0 16 3 21 0 16 -8
-5 -8 1 -10 20 -7 18 4 30 0 36 -11 8 -13 9 -12 10 7 0 17 -6 22 -26 22 -25 0
-26 2 -20 41 6 39 5 41 -16 37 -21 -4 -23 -1 -19 39 l3 43 -81 0 -81 0 0 -35
c0 -34 -1 -35 -40 -35 -39 0 -40 1 -40 35 l0 35 -120 0 -120 0 0 120 0 120
-40 0 -40 0 0 -40 0 -40 -40 0 -40 0 0 40 0 40 -60 0 c-57 0 -60 1 -60 24 0
49 -9 56 -66 56 -41 0 -54 -4 -54 -15 0 -10 -10 -15 -32 -15 -37 0 -200 -39
-208 -50 -6 -9 -125 -50 -145 -50 -8 0 -15 -4 -15 -10 0 -5 -7 -10 -15 -10 -8
0 -15 -4 -15 -10 0 -5 -11 -10 -25 -10 -16 0 -25 -6 -25 -15 0 -11 -11 -15
-40 -15 -25 0 -40 -5 -40 -12 0 -12 -43 -38 -62 -38 -5 0 -19 -9 -31 -20 -12
-12 -32 -23 -44 -26 -13 -4 -23 -12 -23 -19 0 -6 -18 -17 -40 -24 -22 -6 -40
-16 -40 -20 0 -5 -10 -11 -22 -15 -13 -3 -36 -17 -52 -31 -16 -14 -35 -25 -42
-25 -8 0 -21 -11 -30 -25 -9 -14 -21 -25 -28 -25 -6 0 -17 -9 -24 -20 -7 -11
-16 -20 -20 -20 -15 0 -123 -110 -118 -119 3 -5 -8 -11 -26 -15 -17 -3 -41
-17 -54 -31 -13 -14 -28 -25 -34 -25 -6 0 -8 -4 -5 -10 3 -5 -1 -10 -9 -10 -8
0 -17 8 -20 18 -2 9 -2 0 1 -20 5 -34 3 -36 -18 -31 -18 5 -21 3 -16 -10 4
-11 -3 -26 -18 -41 -14 -14 -25 -22 -25 -18 -1 4 -8 -5 -16 -20 -16 -30 -28
-35 -40 -17 -4 8 -9 7 -15 -2 -7 -11 -9 -10 -9 4 0 10 -14 30 -31 44 -25 22
-29 30 -24 57 5 23 4 27 -4 16 -10 -13 -12 -13 -21 0 -5 8 -10 20 -10 26 0 5
-16 16 -35 24 -21 8 -35 21 -35 31 0 10 -8 20 -17 23 -10 3 -7 4 8 2 23 -2 25
0 20 28 -4 26 -6 27 -9 9 -5 -31 -61 -33 -69 -3 -3 11 -12 20 -19 20 -8 0 -14
7 -14 15 0 8 5 15 11 15 8 0 8 4 -1 15 -6 8 -22 13 -33 12 -17 -1 -23 4 -25
25 -2 17 2 27 12 30 13 3 12 7 -4 28 l-18 24 1 -37 c0 -20 -2 -39 -5 -42 -8
-9 -77 28 -78 41 0 7 -8 14 -17 18 -24 8 -51 26 -88 58 -16 16 -34 28 -38 28
-5 0 -15 7 -24 15 -8 9 -28 19 -44 22 -16 3 -29 12 -29 19 0 7 -18 19 -40 25
-22 7 -40 16 -40 21 0 4 -7 8 -15 8 -8 0 -15 4 -15 10 0 5 -11 12 -25 16 -14
3 -25 10 -25 15 0 5 -7 9 -15 9 -8 0 -29 6 -47 14 -18 8 -48 21 -65 28 -18 7
-33 16 -33 20 0 5 -7 8 -15 8 -20 0 -139 41 -145 50 -8 12 -102 40 -132 40
-15 0 -28 4 -28 9 0 5 -18 11 -40 15 -22 3 -40 10 -40 15 0 5 -33 12 -72 15
-108 10 -148 23 -148 46 0 11 -4 20 -10 20 -5 0 -10 -10 -10 -21 0 -18 -4 -21
-30 -16 -72 15 -325 16 -490 2 -96 -8 -180 -15 -187 -15 -7 0 -13 -7 -13 -15
0 -12 -13 -15 -60 -15 l-60 0 0 40 c0 33 -3 40 -20 40 -17 0 -20 7 -20 40 l0
40 -65 0 -65 0 0 39 c0 37 2 40 32 43 35 3 51 33 26 49 -13 9 -18 9 -75 2z
m67 -23 c0 -13 -7 -20 -19 -20 -27 0 -35 17 -14 29 26 15 33 13 33 -9z m-480
-230 c0 -29 -4 -40 -15 -40 -10 0 -15 10 -15 33 0 19 3 37 7 40 15 16 23 5 23
-33z m-80 -16 c0 -12 -6 -15 -22 -10 -13 3 -31 6 -41 6 -33 0 -9 16 27 18 28
2 36 -1 36 -14z m-160 -44 c0 -5 -2 -10 -4 -10 -3 0 -8 5 -11 10 -3 6 -1 10 4
10 6 0 11 -4 11 -10z m-33 -16 c-3 -3 -12 -4 -19 -1 -8 3 -5 6 6 6 11 1 17 -2
13 -5z m3 -34 c-20 -13 -33 -13 -25 0 3 6 14 10 23 10 15 0 15 -2 2 -10z m-64
-90 c10 0 14 -12 14 -40 l0 -40 -40 0 -40 0 0 40 c0 34 3 40 21 40 11 0 17 5
14 10 -3 6 -3 16 2 23 6 8 9 5 11 -10 2 -13 10 -23 18 -23z m4382 -57 c-10 -2
-26 -2 -35 0 -10 3 -2 5 17 5 19 0 27 -2 18 -5z m-145 -80 c-13 -2 -33 -2 -45
0 -13 2 -3 4 22 4 25 0 35 -2 23 -4z m1057 -63 c0 -5 -18 -10 -40 -10 -22 0
-40 5 -40 10 0 6 18 10 40 10 22 0 40 -4 40 -10z m-270 -76 c0 -2 -12 -4 -27
-4 -21 0 -24 3 -14 9 13 8 41 5 41 -5z m-93 0 c-3 -3 -12 -4 -19 -1 -8 3 -5 6
6 6 11 1 17 -2 13 -5z m586 -1 c-13 -2 -33 -2 -45 0 -13 2 -3 4 22 4 25 0 35
-2 23 -4z m-5856 -35 c-3 -8 -6 -5 -6 6 -1 11 2 17 5 13 3 -3 4 -12 1 -19z
m-220 -280 c-3 -7 -5 -2 -5 12 0 14 2 19 5 13 2 -7 2 -19 0 -25z m3420 -240
c-3 -8 -6 -5 -6 6 -1 11 2 17 5 13 3 -3 4 -12 1 -19z"/>
<path d="M2574 7456 c-27 -10 -30 -14 -22 -35 4 -13 6 -26 3 -29 -3 -3 -5 0
-5 6 0 7 -7 12 -15 12 -8 0 -15 -4 -15 -10 0 -5 -7 -10 -15 -10 -8 0 -15 -7
-15 -15 0 -8 7 -15 15 -15 8 0 15 5 15 10 0 6 7 10 15 10 8 0 15 -4 15 -10 0
-5 20 -10 45 -10 l46 0 -2 55 c-2 60 -6 63 -65 41z"/>
<path d="M3965 7450 c-3 -5 1 -10 10 -10 9 0 13 5 10 10 -3 6 -8 10 -10 10 -2
0 -7 -4 -10 -10z"/>
<path d="M4000 7448 c0 -11 58 -10 65 1 3 5 -10 9 -30 8 -19 -1 -35 -5 -35 -9z"/>
<path d="M8095 7450 c-13 -5 -14 -9 -5 -9 8 0 24 4 35 9 13 5 14 9 5 9 -8 0
-24 -4 -35 -9z"/>
<path d="M4088 7443 c6 -2 18 -2 25 0 6 3 1 5 -13 5 -14 0 -19 -2 -12 -5z"/>
<path d="M4185 7406 c17 -7 34 -11 39 -8 13 7 -16 22 -44 21 -24 0 -24 0 5
-13z"/>
<path d="M2448 7378 c12 -12 25 -19 28 -15 4 4 -1 14 -12 22 -29 22 -41 18
-16 -7z"/>
<path d="M4240 7387 c0 -15 20 -27 46 -27 20 0 17 16 -3 24 -10 3 -24 9 -30
12 -7 3 -13 -1 -13 -9z"/>
<path d="M4160 7374 c0 -8 5 -12 10 -9 6 4 8 11 5 16 -9 14 -15 11 -15 -7z"/>
<path d="M2375 7369 c-15 -6 -11 -8 18 -8 20 -1 37 1 37 3 0 9 -37 12 -55 5z"/>
<path d="M4320 7361 c0 -5 5 -13 10 -16 6 -3 10 -2 10 4 0 5 -4 13 -10 16 -5
3 -10 2 -10 -4z"/>
<path d="M4370 7319 c0 -5 5 -7 10 -4 6 3 10 8 10 11 0 2 -4 4 -10 4 -5 0 -10
-5 -10 -11z"/>
<path d="M4326 7301 c-4 -7 -5 -15 -2 -18 9 -9 19 4 14 18 -4 11 -6 11 -12 0z"/>
<path d="M4430 7290 c0 -6 7 -10 15 -10 8 0 15 2 15 4 0 2 -7 6 -15 10 -8 3
-15 1 -15 -4z"/>
<path d="M8535 7290 c3 -5 21 -10 38 -9 27 0 29 2 12 9 -28 12 -57 12 -50 0z"/>
<path d="M4480 7223 c0 -13 5 -23 10 -23 13 0 13 11 0 30 -8 12 -10 11 -10 -7z"/>
<path d="M7077 7230 c-16 -5 -35 -6 -42 -4 -8 3 -22 1 -32 -4 -17 -10 -17 -11
0 -18 10 -3 37 -3 60 0 23 4 63 7 90 6 27 -1 47 4 47 10 0 5 -15 10 -34 10
-19 0 -40 2 -48 4 -7 2 -26 0 -41 -4z"/>
<path d="M7520 7219 c0 -12 7 -19 20 -19 11 0 20 6 20 14 0 7 -9 16 -20 19
-15 4 -20 0 -20 -14z"/>
<path d="M4570 7221 c0 -5 -8 -12 -17 -14 -11 -3 -7 -5 10 -6 27 -1 36 12 17
24 -5 3 -10 2 -10 -4z"/>
<path d="M7355 7223 c44 -2 82 -9 86 -15 7 -12 49 -1 49 13 0 5 -46 8 -107 7
-99 -2 -101 -2 -28 -5z"/>
<path d="M7600 7210 c0 -6 32 -10 72 -10 39 0 69 2 67 4 -10 9 -139 14 -139 6z"/>
<path d="M6938 7203 c7 -3 16 -2 19 1 4 3 -2 6 -13 5 -11 0 -14 -3 -6 -6z"/>
<path d="M4088 7193 c7 -3 16 -2 19 1 4 3 -2 6 -13 5 -11 0 -14 -3 -6 -6z"/>
<path d="M2640 7176 c0 -9 14 -15 40 -18 33 -3 40 0 40 14 0 14 -8 18 -40 18
-28 0 -40 -4 -40 -14z"/>
<path d="M7840 7165 c0 -16 9 -19 34 -9 25 9 19 24 -9 24 -16 0 -25 -6 -25
-15z"/>
<path d="M8775 7160 c3 -5 8 -10 11 -10 2 0 4 5 4 10 0 6 -5 10 -11 10 -5 0
-7 -4 -4 -10z"/>
<path d="M7920 7140 c0 -19 11 -26 23 -14 8 8 -3 34 -14 34 -5 0 -9 -9 -9 -20z"/>
<path d="M4668 7143 c7 -3 16 -2 19 1 4 3 -2 6 -13 5 -11 0 -14 -3 -6 -6z"/>
<path d="M8792 7134 c-7 -8 -8 -14 -3 -14 10 0 25 19 20 25 -2 1 -10 -3 -17
-11z"/>
<path d="M4630 7130 c-13 -8 -12 -10 3 -10 9 0 17 5 17 10 0 12 -1 12 -20 0z"/>
<path d="M8000 7130 c0 -5 19 -10 42 -10 49 0 47 5 -4 14 -24 4 -38 3 -38 -4z"/>
<path d="M8735 7130 c-3 -5 -1 -10 4 -10 6 0 11 5 11 10 0 6 -2 10 -4 10 -3 0
-8 -4 -11 -10z"/>
<path d="M7848 7123 c7 -3 16 -2 19 1 4 3 -2 6 -13 5 -11 0 -14 -3 -6 -6z"/>
<path d="M7698 7113 c12 -2 32 -2 45 0 12 2 2 4 -23 4 -25 0 -35 -2 -22 -4z"/>
<path d="M8080 7090 c0 -5 9 -10 21 -10 11 0 17 5 14 10 -3 6 -13 10 -21 10
-8 0 -14 -4 -14 -10z"/>
<path d="M4734 7074 c-4 -10 -9 -22 -11 -26 -2 -5 0 -8 6 -8 11 0 26 39 17 47
-3 3 -9 -3 -12 -13z"/>
<path d="M8160 7060 c0 -5 6 -10 14 -10 8 0 18 5 21 10 3 6 -3 10 -14 10 -12
0 -21 -4 -21 -10z"/>
<path d="M8890 7050 c0 -5 5 -10 10 -10 6 0 10 5 10 10 0 6 -4 10 -10 10 -5 0
-10 -4 -10 -10z"/>
<path d="M4802 7025 c-2 -25 11 -40 28 -30 6 3 5 15 -2 30 -14 32 -23 32 -26
0z"/>
<path d="M7698 7043 c12 -2 32 -2 45 0 12 2 2 4 -23 4 -25 0 -35 -2 -22 -4z"/>
<path d="M7353 7000 c2 -42 4 -45 30 -46 25 -1 25 -1 2 3 -40 7 -29 23 15 23
33 0 40 3 40 20 0 17 -7 20 -39 20 -22 0 -42 6 -45 13 -3 6 -4 -8 -3 -33z"/>
<path d="M4568 7013 c6 -2 18 -2 25 0 6 3 1 5 -13 5 -14 0 -19 -2 -12 -5z"/>
<path d="M4850 6979 c0 -11 4 -18 10 -14 5 3 7 12 3 20 -7 21 -13 19 -13 -6z"/>
<path d="M8320 6985 c0 -16 9 -19 34 -9 20 8 11 24 -15 24 -10 0 -19 -7 -19
-15z"/>
<path d="M8400 6920 c0 -22 16 -26 40 -10 13 9 13 11 0 20 -24 16 -40 12 -40
-10z"/>
<path d="M5831 6894 c0 -11 3 -14 6 -6 3 7 2 16 -1 19 -3 4 -6 -2 -5 -13z"/>
<path d="M4960 6883 c0 -13 5 -23 10 -23 13 0 13 11 0 30 -8 12 -10 11 -10 -7z"/>
<path d="M8090 6846 c0 -19 5 -38 10 -41 6 -4 10 10 10 34 0 23 -4 41 -10 41
-5 0 -10 -15 -10 -34z"/>
<path d="M8400 6840 c0 -26 5 -40 13 -40 9 0 11 12 9 40 -2 22 -8 40 -13 40
-5 0 -9 -18 -9 -40z"/>
<path d="M4970 6810 c0 -5 5 -10 10 -10 6 0 10 5 10 10 0 6 -4 10 -10 10 -5 0
-10 -4 -10 -10z"/>
<path d="M9125 6810 c-3 -5 -1 -10 4 -10 6 0 11 5 11 10 0 6 -2 10 -4 10 -3 0
-8 -4 -11 -10z"/>
<path d="M7760 6763 c0 -21 4 -43 8 -49 8 -13 72 -15 72 -2 0 4 -9 8 -20 8
-24 0 -38 44 -20 65 10 13 8 15 -14 15 -23 0 -26 -4 -26 -37z"/>
<path d="M7980 6726 c0 -81 -4 -85 -75 -86 -28 -1 -28 -2 -10 -12 11 -7 31
-13 45 -14 13 -2 32 -13 42 -26 11 -14 18 -18 18 -9 0 11 3 11 15 1 9 -7 13
-15 10 -18 -3 -3 4 -12 16 -20 11 -8 23 -12 25 -9 3 3 15 -4 26 -15 22 -22 38
-17 18 7 -10 13 -9 15 8 15 24 0 38 16 20 22 -10 4 -10 10 -1 31 11 24 18 27
58 27 25 0 45 4 45 9 0 12 -86 20 -142 14 -25 -3 -58 -3 -72 1 -25 6 -26 9
-26 81 0 43 -4 75 -10 75 -6 0 -10 -31 -10 -74z m20 -106 c0 -5 -4 -10 -10
-10 -5 0 -10 5 -10 10 0 6 5 10 10 10 6 0 10 -4 10 -10z"/>
<path d="M8318 6760 c3 -31 8 -40 23 -40 15 0 19 7 19 40 0 35 -3 40 -23 40
-20 0 -22 -4 -19 -40z"/>
<path d="M9170 6730 c0 -5 5 -10 11 -10 5 0 7 5 4 10 -3 6 -8 10 -11 10 -2 0
-4 -4 -4 -10z"/>
<path d="M8473 6685 c0 -22 2 -30 4 -17 2 12 2 30 0 40 -3 9 -5 -1 -4 -23z"/>
<path d="M8720 6680 c0 -22 16 -26 40 -10 13 9 13 11 0 20 -24 16 -40 12 -40
-10z"/>
<path d="M7821 6681 c-10 -6 -10 -10 -1 -16 13 -8 24 -1 19 14 -3 6 -10 7 -18
2z"/>
<path d="M5130 6670 c0 -5 5 -10 10 -10 6 0 10 5 10 10 0 6 -4 10 -10 10 -5 0
-10 -4 -10 -10z"/>
<path d="M8320 6600 c0 -33 3 -40 20 -40 17 0 20 7 20 40 0 33 -3 40 -20 40
-17 0 -20 -7 -20 -40z"/>
<path d="M8644 6626 c-3 -8 -4 -27 -1 -43 3 -24 4 -23 6 9 1 32 5 37 29 41
l27 4 -28 2 c-16 0 -30 -5 -33 -13z"/>
<path d="M8802 6555 l3 -75 -48 0 c-30 0 -46 -4 -42 -10 3 -5 41 -10 85 -10
60 0 79 3 84 15 3 8 17 20 31 27 32 14 32 22 0 36 -35 16 -35 16 -35 -23 0
-33 -2 -35 -27 -32 -27 4 -28 6 -31 75 -2 41 -7 72 -13 72 -7 0 -9 -28 -7 -75z"/>
<path d="M9288 6580 c-3 -44 -3 -50 6 -50 5 0 10 16 11 35 2 36 -14 51 -17 15z"/>
<path d="M8160 6546 c0 -7 -3 -28 -6 -45 -4 -21 -3 -31 5 -31 7 0 27 -11 45
-25 l33 -25 1 30 c1 29 -12 42 -20 19 -2 -5 -11 -7 -20 -4 -13 5 -14 12 -7 38
13 47 11 57 -11 57 -11 0 -20 -6 -20 -14z"/>
<path d="M5250 6520 c0 -5 5 -10 10 -10 6 0 10 5 10 10 0 6 -4 10 -10 10 -5 0
-10 -4 -10 -10z"/>
<path d="M8640 6465 c0 -8 2 -15 4 -15 2 0 6 7 10 15 3 8 1 15 -4 15 -6 0 -10
-7 -10 -15z"/>
<path d="M8960 6440 c0 -30 4 -40 16 -40 13 0 15 7 10 31 -3 17 -6 35 -6 40 0
5 -4 9 -10 9 -5 0 -10 -18 -10 -40z"/>
<path d="M9367 6433 c-11 -10 -8 -25 3 -18 6 4 18 1 27 -7 15 -11 16 -11 10 5
-4 10 -7 21 -7 23 0 7 -26 5 -33 -3z"/>
<path d="M5320 6410 c0 -5 5 -10 11 -10 5 0 7 5 4 10 -3 6 -8 10 -11 10 -2 0
-4 -4 -4 -10z"/>
<path d="M8400 6360 c0 -38 -2 -40 -31 -40 l-30 0 28 -26 c25 -23 28 -24 34
-7 7 16 8 15 8 -4 1 -33 12 -53 27 -53 8 0 14 -4 14 -10 0 -13 53 -89 62 -90
4 0 5 7 2 15 -4 8 -1 15 5 15 6 0 11 -8 11 -17 1 -10 7 -29 15 -43 14 -25 14
-25 15 -2 0 12 -5 22 -10 22 -7 0 -7 6 0 19 7 14 6 21 -3 24 -6 3 5 3 26 0
l37 -6 0 82 0 81 -40 0 c-36 0 -40 3 -40 24 0 49 -8 56 -71 56 l-59 0 0 -40z
m57 -72 c-3 -7 -5 -2 -5 12 0 14 2 19 5 13 2 -7 2 -19 0 -25z"/>
<path d="M9040 6360 c0 -38 12 -52 25 -30 9 14 -4 70 -16 70 -5 0 -9 -18 -9
-40z"/>
<path d="M8305 6361 c-3 -5 -1 -12 5 -16 5 -3 10 1 10 9 0 18 -6 21 -15 7z"/>
<path d="M9440 6249 c0 -11 5 -17 10 -14 6 3 10 13 10 21 0 8 -4 14 -10 14 -5
0 -10 -9 -10 -21z"/>
<path d="M8960 6200 l0 -40 40 0 40 0 0 40 0 40 -40 0 -40 0 0 -40z"/>
<path d="M9120 6200 c0 -22 -4 -40 -10 -40 -5 0 -10 -11 -10 -25 0 -14 5 -25
10 -25 6 0 10 11 10 25 0 14 5 25 10 25 6 0 10 18 10 40 0 22 -4 40 -10 40 -5
0 -10 -18 -10 -40z"/>
<path d="M9457 6213 c-4 -3 -7 -18 -7 -32 l1 -26 14 25 c8 14 14 28 15 33 0 9
-14 9 -23 0z"/>
<path d="M8640 6120 c0 -22 5 -40 10 -40 6 0 10 18 10 40 0 22 -4 40 -10 40
-5 0 -10 -18 -10 -40z"/>
<path d="M9200 6081 c0 -44 -3 -81 -7 -84 -5 -2 -2 -2 5 0 8 1 20 3 28 3 10 0
14 12 14 40 0 22 -4 40 -10 40 -5 0 -10 18 -10 40 0 22 -4 40 -10 40 -6 0 -10
-33 -10 -79z"/>
<path d="M9066 6099 c3 -6 9 -8 12 -5 3 3 11 1 19 -6 12 -10 33 -4 22 6 -10
10 -59 14 -53 5z"/>
<path d="M9526 6095 c-3 -8 -1 -15 4 -15 6 0 10 7 10 15 0 8 -2 15 -4 15 -2 0
-6 -7 -10 -15z"/>
<path d="M8575 6070 c3 -5 8 -10 11 -10 2 0 4 5 4 10 0 6 -5 10 -11 10 -5 0
-7 -4 -4 -10z"/>
<path d="M8602 6064 c4 -21 22 -23 26 -1 2 10 -3 17 -13 17 -10 0 -15 -6 -13
-16z"/>
<path d="M8950 6070 c0 -5 -33 -10 -72 -12 -71 -3 -73 -4 -76 -30 -3 -24 -8
-27 -50 -30 l-46 -3 1 -37 c0 -37 -4 -41 -37 -39 -10 0 -11 -1 -2 -5 6 -3 12
-12 12 -21 0 -8 7 -21 15 -29 8 -9 15 -27 16 -42 l1 -27 8 25 c8 25 8 25 11
-5 1 -16 3 -37 5 -45 1 -8 2 -19 3 -25 1 -5 6 -3 11 5 8 12 10 9 10 -12 0 -15
5 -30 10 -33 6 -4 8 -14 6 -23 -7 -20 18 -95 27 -85 4 3 7 -10 7 -29 0 -31 28
-119 30 -93 0 6 6 1 12 -9 8 -15 8 -21 0 -24 -21 -7 -13 -42 11 -52 17 -7 18
-9 5 -9 -21 -1 -21 -8 -8 -82 14 -78 23 -234 22 -381 -1 -71 3 -128 8 -128 5
0 15 6 22 13 38 37 112 60 210 65 78 4 101 8 106 20 3 9 18 27 34 41 16 14 46
42 67 61 58 53 76 67 133 99 29 17 52 34 50 38 -2 4 15 14 39 23 33 12 43 12
46 3 7 -19 31 -16 42 6 6 10 9 69 7 132 -5 164 -9 171 -16 29 l-7 -125 4 130
c1 72 3 150 4 175 1 67 -5 148 -13 155 -6 6 -25 -130 -20 -148 6 -22 -19 -44
-48 -42 -16 1 -28 -1 -25 -5 3 -4 21 -6 40 -4 19 1 35 -1 35 -7 0 -5 -18 -9
-40 -9 l-40 0 0 -40 c0 -29 -4 -40 -15 -40 -9 0 -15 9 -15 24 0 13 -3 31 -6
40 -4 11 -1 16 10 16 18 0 21 18 5 40 -8 11 -12 12 -16 3 -8 -21 -20 -15 -27
12 -4 14 -10 25 -15 25 -5 0 -12 36 -16 79 -4 51 -12 81 -20 85 -8 3 -16 33
-20 80 -8 82 -24 103 -26 34 -2 -30 -5 -18 -12 40 -8 70 -13 82 -28 82 -15 0
-19 8 -19 40 0 22 -4 40 -10 40 -5 0 -10 -4 -10 -8 0 -5 -8 -9 -17 -9 -68 1
-83 -3 -83 -22 0 -15 -6 -19 -20 -16 -12 2 -18 0 -15 -6 4 -5 10 -7 15 -4 5 3
12 0 15 -6 5 -7 -3 -9 -21 -7 -26 3 -29 7 -29 41 l0 37 -85 -2 -85 -3 1 43 c0
23 -1 42 -3 42 -1 0 -3 -4 -3 -10z m-70 -110 l0 -40 -40 0 c-28 0 -40 4 -40
14 0 11 -10 13 -40 9 -36 -5 -40 -3 -40 16 0 17 6 21 30 21 17 0 30 -4 30 -10
0 -5 5 -10 10 -10 6 0 10 9 10 20 0 17 7 20 40 20 l40 0 0 -40z m400 -32 c0
-5 -18 -8 -40 -8 -22 0 -40 4 -40 10 0 5 18 9 40 7 22 -1 40 -5 40 -9z m-503
-120 c-3 -7 -5 -2 -5 12 0 14 2 19 5 13 2 -7 2 -19 0 -25z m560 -30 c-2 -13
-4 -5 -4 17 -1 22 1 32 4 23 2 -10 2 -28 0 -40z m-217 -28 c0 -5 -18 -10 -40
-10 -22 0 -40 5 -40 10 0 6 18 10 40 10 22 0 40 -4 40 -10z m0 -60 c0 -5 -18
-10 -40 -10 -22 0 -40 5 -40 10 0 6 18 10 40 10 22 0 40 -4 40 -10z m-267
-132 c4 -29 2 -38 -9 -38 -16 0 -17 5 -8 49 8 38 9 37 17 -11z m28 -31 c-10
-9 -11 -8 -5 6 3 10 9 15 12 12 3 -3 0 -11 -7 -18z m749 -33 c0 -14 -4 -23
-10 -19 -5 3 -10 15 -10 26 0 10 5 19 10 19 6 0 10 -12 10 -26z m-83 -300 c-3
-3 -12 -4 -19 -1 -8 3 -5 6 6 6 11 1 17 -2 13 -5z m-2 -24 c3 -5 -1 -10 -9
-10 -9 0 -16 5 -16 10 0 6 4 10 9 10 6 0 13 -4 16 -10z"/>
<path d="M9520 6040 c0 -29 4 -36 20 -36 25 0 25 17 0 47 l-19 24 -1 -35z"/>
<path d="M8654 5985 c3 -9 6 -26 6 -38 0 -28 17 -10 22 23 2 18 -2 26 -16 28
-14 3 -17 0 -12 -13z"/>
<path d="M8631 5964 c0 -11 3 -14 6 -6 3 7 2 16 -1 19 -3 4 -6 -2 -5 -13z"/>
<path d="M9520 5948 c0 -18 5 -28 15 -28 19 0 19 11 0 36 -14 18 -14 18 -15
-8z"/>
<path d="M9560 5941 c0 -12 5 -21 10 -21 6 0 10 6 10 14 0 8 -4 18 -10 21 -5
3 -10 -3 -10 -14z"/>
<path d="M9606 5762 c-3 -5 -1 -22 4 -38 8 -29 8 -29 9 9 1 36 -3 45 -13 29z"/>
<path d="M9520 5720 c0 -22 5 -40 10 -40 6 0 10 18 10 40 0 22 -4 40 -10 40
-5 0 -10 -18 -10 -40z"/>
<path d="M6560 5716 c0 -12 -10 -16 -40 -16 -23 0 -40 5 -40 11 0 9 -23 10
-79 6 -77 -6 -141 -27 -171 -57 -15 -15 -56 -40 -65 -40 -14 0 -2 18 18 28 12
6 17 11 11 11 -6 1 -29 -12 -50 -29 -22 -16 -43 -33 -49 -37 -5 -5 -23 -17
-39 -27 -68 -44 -195 -194 -178 -210 4 -4 -1 -12 -11 -18 -14 -7 -17 -17 -12
-36 5 -21 4 -23 -8 -14 -11 9 -17 4 -31 -26 -10 -20 -35 -64 -56 -97 -31 -48
-51 -66 -97 -90 -32 -17 -60 -33 -63 -37 -3 -3 -70 -9 -150 -13 -80 -3 -163
-10 -185 -15 -22 -5 -56 -10 -76 -10 -100 0 -146 -57 -134 -164 9 -83 16 -116
24 -112 3 2 7 -22 8 -53 5 -113 56 -235 153 -368 94 -129 211 -172 605 -227
258 -36 313 -128 302 -504 -3 -98 -12 -240 -21 -317 -9 -77 -21 -192 -28 -255
-27 -245 -9 -680 28 -680 7 0 14 4 16 8 6 15 257 197 368 267 175 110 261 165
318 203 29 19 68 43 87 53 39 21 158 110 163 121 2 5 8 8 13 8 9 0 68 42 105
75 75 66 129 111 139 117 6 4 30 24 51 45 103 100 296 236 399 282 28 12 57
26 66 31 9 4 40 11 70 15 30 4 58 11 64 16 5 6 -10 27 -42 57 -52 48 -173 204
-173 222 0 6 -7 13 -15 16 -8 4 -15 12 -15 20 0 8 -4 14 -10 14 -5 0 -18 19
-29 42 -15 33 -20 38 -24 22 -3 -12 -5 -8 -6 13 0 17 -5 34 -10 37 -5 3 -11
17 -15 30 -3 13 -24 63 -46 111 l-40 88 -26 -29 c-92 -102 -117 -124 -188
-164 -96 -53 -145 -65 -266 -65 -122 0 -182 15 -276 70 -84 49 -161 164 -185
277 -15 68 -5 298 15 365 8 26 36 120 62 208 26 88 57 187 70 220 12 33 26 72
29 88 4 15 11 27 16 27 5 0 9 12 10 28 1 64 16 -16 18 -98 1 -47 4 -104 7
-128 4 -24 0 -73 -9 -115 -8 -39 -21 -99 -27 -132 -6 -33 -19 -89 -27 -125
-21 -89 -23 -303 -3 -350 8 -19 19 -41 25 -47 5 -7 26 -33 45 -57 63 -78 187
-104 330 -67 47 12 87 26 90 30 3 4 23 18 45 31 22 13 48 33 58 44 10 12 32
36 48 54 37 40 95 154 108 213 20 87 9 262 -21 330 -7 16 -15 29 -18 29 -3 0
-6 13 -7 30 -2 32 -41 128 -59 147 -6 6 -21 37 -34 67 -12 31 -26 53 -31 50
-5 -3 -9 2 -9 12 0 9 -21 48 -47 87 -27 38 -56 84 -66 101 -27 44 -37 53 -37
32 0 -9 -5 -14 -10 -11 -6 4 -8 11 -4 16 3 5 0 16 -6 24 -7 8 -10 15 -7 15 5
0 -40 55 -58 71 -40 35 -75 59 -84 59 -5 0 -18 8 -28 19 -10 10 -29 22 -43 26
-14 4 -33 14 -42 22 -10 9 -24 13 -32 10 -10 -4 -13 -1 -9 9 6 17 -18 19 -35
2 -6 -6 -15 -8 -19 -4 -4 4 -2 11 5 15 18 11 -79 38 -163 46 -38 3 -78 9 -87
11 -12 4 -18 0 -18 -10z m295 -91 c29 -13 29 -13 5 -14 -14 0 -34 6 -44 14
-26 19 -2 19 39 0z m-890 -175 c3 -5 1 -10 -4 -10 -6 0 -11 5 -11 10 0 6 2 10
4 10 3 0 8 -4 11 -10z m1200 -70 c-3 -5 -10 -10 -16 -10 -5 0 -9 5 -9 10 0 6
7 10 16 10 8 0 12 -4 9 -10z m-1278 -92 c-3 -8 -6 -5 -6 6 -1 11 2 17 5 13 3
-3 4 -12 1 -19z m980 -60 c-3 -8 -6 -5 -6 6 -1 11 2 17 5 13 3 -3 4 -12 1 -19z
m-727 -75 c8 -4 18 -6 22 -5 12 3 37 -89 32 -116 -16 -77 -112 -118 -174 -75
-36 25 -40 32 -40 94 0 47 4 59 28 81 36 34 79 41 132 21z m-1043 -345 c-3 -8
-6 -5 -6 6 -1 11 2 17 5 13 3 -3 4 -12 1 -19z"/>
<path d="M9440 5620 c0 -11 5 -20 10 -20 6 0 10 9 10 20 0 11 -4 20 -10 20 -5
0 -10 -9 -10 -20z"/>
<path d="M4306 5164 c-31 -25 -56 -52 -56 -60 0 -7 -4 -14 -9 -14 -4 0 -31
-36 -59 -80 -55 -87 -59 -89 -177 -116 -44 -10 -116 -33 -160 -51 -43 -18 -83
-33 -88 -33 -5 0 -39 17 -75 38 -37 21 -98 51 -137 66 -38 16 -78 32 -88 37
-31 17 -106 23 -121 10 -23 -19 -40 -108 -39 -201 2 -97 28 -341 44 -414 8
-35 9 -63 1 -100 -6 -28 -18 -100 -27 -161 -9 -60 -20 -128 -25 -150 -5 -22
-12 -56 -15 -75 -16 -91 -35 -129 -83 -163 -26 -18 -58 -38 -72 -44 -141 -64
-160 -74 -154 -85 4 -6 3 -8 -3 -5 -6 4 -18 1 -28 -6 -15 -12 -7 -17 67 -48
71 -31 134 -70 278 -174 44 -32 130 -103 200 -165 120 -107 145 -127 270 -217
121 -88 352 -238 415 -270 16 -9 37 -22 45 -29 8 -8 44 -33 80 -57 209 -139
316 -216 385 -278 43 -38 83 -68 89 -66 15 5 25 78 32 222 6 136 -14 336 -63
625 -31 187 -15 428 37 535 11 22 36 58 55 80 32 36 73 93 118 167 72 116 98
326 62 486 -21 89 -51 117 -137 127 -26 3 -52 30 -78 80 -13 25 -27 45 -32 45
-4 0 -8 6 -8 14 0 18 -177 199 -188 192 -5 -3 -16 3 -24 13 -9 11 -23 23 -32
28 -10 5 -20 38 -29 95 -8 48 -21 98 -31 112 -9 14 -16 34 -16 45 0 32 -33 90
-52 91 -9 0 -41 -20 -72 -46z m417 -635 c37 -10 74 -50 63 -67 -3 -5 -22 -12
-42 -15 -66 -11 -119 -44 -140 -87 -20 -42 -34 -49 -53 -27 -53 65 22 207 109
207 14 0 42 -5 63 -11z m-444 -158 c32 -23 55 -79 39 -96 -4 -5 -44 -8 -88 -6
-74 2 -86 0 -141 -29 -33 -17 -64 -28 -69 -25 -30 19 3 120 52 160 30 24 39
26 104 22 53 -3 79 -10 103 -26z"/>
<path d="M1070 4978 c-46 -13 -108 -73 -120 -118 -18 -66 -6 -238 27 -360 8
-30 23 -86 33 -125 49 -186 257 -785 281 -810 5 -5 9 -15 9 -21 0 -35 249
-588 360 -799 85 -161 89 -169 138 -252 23 -39 42 -76 42 -81 0 -6 4 -12 8
-14 5 -1 27 -30 50 -63 162 -233 330 -409 502 -525 13 -8 35 -24 49 -35 14
-11 51 -36 81 -56 30 -19 82 -53 115 -75 33 -21 68 -43 77 -49 10 -5 62 -38
115 -73 54 -35 107 -68 117 -75 99 -62 233 -148 241 -154 35 -29 437 -273 595
-362 25 -13 47 -27 50 -30 7 -9 48 -32 105 -59 28 -13 52 -27 55 -31 6 -7 305
-156 415 -206 208 -94 437 -171 695 -231 249 -58 286 -61 430 -34 191 35 467
110 590 160 25 10 74 30 110 44 178 69 659 307 715 354 6 4 17 11 25 15 8 3
38 20 65 36 28 17 77 45 110 62 33 17 62 34 65 38 3 4 70 46 150 95 80 48 177
109 215 134 39 25 86 55 105 67 19 12 61 38 92 58 32 20 60 37 63 37 3 0 11 5
18 10 17 15 265 178 302 199 38 21 178 113 185 120 3 3 23 18 45 33 22 15 52
38 66 50 15 13 50 43 78 67 92 78 209 204 325 351 6 8 24 36 39 62 15 26 33
53 40 60 7 7 18 24 25 38 18 38 64 114 71 120 12 10 252 482 272 535 4 11 21
49 37 85 28 61 84 190 103 235 4 11 29 69 54 129 26 59 47 121 47 137 1 15 5
26 10 23 4 -3 8 3 8 13 0 11 4 23 10 29 5 5 18 36 29 69 11 33 36 105 56 160
20 55 47 136 60 180 23 81 43 145 75 245 34 105 63 273 63 366 0 99 -8 118
-73 184 -33 34 -36 35 -110 34 -41 -1 -86 -6 -100 -13 -25 -11 -25 -11 5 -7
70 11 119 15 107 10 -6 -3 -12 -23 -12 -45 l0 -39 -52 1 c-29 0 -47 3 -40 6
21 8 13 25 -9 18 -15 -5 -19 -4 -15 4 4 6 14 11 22 11 8 0 14 4 14 8 0 4 -16
8 -35 8 -19 0 -35 -3 -35 -8 0 -4 -7 -5 -15 -2 -8 4 -15 1 -15 -5 0 -6 -6 -11
-13 -11 -14 0 -95 -82 -145 -147 -30 -39 -31 -43 -12 -43 11 0 20 -5 20 -10 0
-6 -11 -8 -25 -6 -26 5 -29 0 -25 -41 1 -17 -3 -21 -14 -17 -12 5 -15 2 -10
-10 3 -9 1 -16 -5 -16 -6 0 -11 -9 -11 -20 0 -11 -4 -20 -9 -20 -5 0 -12 -12
-16 -27 -3 -16 -12 -35 -19 -43 -7 -8 -16 -24 -19 -35 -3 -11 -14 -44 -25 -72
-11 -29 -18 -63 -15 -74 4 -15 3 -20 -6 -15 -7 5 -13 -3 -17 -23 -4 -17 -11
-31 -16 -31 -5 0 -8 -6 -6 -12 1 -7 -5 -27 -14 -44 -10 -17 -14 -41 -11 -52 4
-16 1 -22 -10 -22 -9 0 -19 -10 -22 -22 -7 -23 -30 -77 -66 -153 -10 -22 -30
-69 -45 -105 -26 -67 -63 -148 -92 -209 -9 -19 -17 -37 -17 -40 0 -3 -12 -26
-26 -51 -56 -97 -139 -254 -139 -262 0 -4 -4 -8 -9 -8 -5 0 -11 -8 -15 -17 -9
-28 -36 -71 -105 -168 -79 -110 -662 -695 -693 -695 -4 0 -8 -6 -8 -13 0 -14
-56 -67 -71 -67 -5 0 -9 -5 -9 -11 0 -6 -17 -28 -38 -48 -20 -21 -91 -96 -157
-166 -66 -70 -133 -141 -148 -156 -59 -60 -63 -23 -9 83 84 163 163 267 367
483 42 44 122 129 178 189 56 60 125 132 153 161 93 97 151 243 141 356 -10
112 -99 184 -227 183 -65 0 -162 -25 -190 -49 -8 -7 -30 -20 -48 -29 -18 -9
-41 -23 -50 -31 -9 -8 -80 -65 -157 -127 -77 -62 -147 -120 -155 -129 -8 -10
-44 -40 -80 -68 -36 -28 -72 -57 -81 -66 -9 -8 -21 -15 -27 -15 -6 0 -13 -8
-16 -18 -3 -9 -18 -23 -34 -30 -16 -6 -37 -20 -48 -30 -10 -9 -55 -41 -99 -70
-44 -28 -84 -55 -90 -60 -5 -4 -32 -21 -60 -36 -93 -54 -260 -160 -263 -167
-2 -4 -26 -19 -54 -34 -63 -33 -177 -114 -267 -190 -20 -17 -74 -62 -121 -99
-47 -38 -95 -81 -108 -95 -13 -14 -43 -47 -68 -73 -24 -26 -44 -51 -44 -54 0
-3 -29 -41 -64 -83 -55 -67 -90 -117 -131 -183 -30 -49 -115 -208 -130 -243
-25 -57 -103 -280 -121 -345 -8 -30 -26 -105 -39 -167 -12 -61 -26 -116 -29
-122 -4 -6 -15 -55 -25 -108 l-18 -98 -7 65 c-4 36 -18 101 -31 145 -14 44
-39 141 -56 215 -17 74 -42 158 -54 185 -12 28 -30 75 -39 105 -54 175 -222
465 -363 627 -29 33 -53 63 -53 66 0 11 -186 182 -270 248 -119 95 -412 297
-475 329 -11 6 -40 24 -65 40 -25 16 -68 43 -96 59 -62 37 -187 121 -194 130
-3 3 -25 19 -49 36 -24 16 -45 35 -48 42 -3 7 -10 13 -16 13 -9 0 -104 74
-203 159 -131 113 -200 168 -306 245 -102 74 -213 116 -305 116 -58 0 -132
-39 -173 -90 -29 -36 -34 -51 -38 -114 -9 -140 50 -252 228 -436 234 -241 317
-329 355 -375 22 -27 54 -65 70 -84 76 -89 147 -201 191 -300 27 -59 30 -81
12 -81 -12 0 -35 24 -147 150 -36 41 -181 188 -321 327 -362 357 -538 533
-570 568 -43 48 -153 195 -189 255 -98 159 -271 492 -271 523 0 7 -9 23 -20
37 -11 14 -20 30 -20 36 0 6 -24 67 -54 135 -72 167 -106 252 -161 394 -25 66
-55 139 -66 162 -10 24 -31 73 -46 110 -27 71 -86 167 -132 216 -36 40 -138
110 -186 129 -55 21 -123 28 -165 16z m8697 -80 c-3 -8 -6 -5 -6 6 -1 11 2 17
5 13 3 -3 4 -12 1 -19z m-440 -250 c-3 -7 -5 -2 -5 12 0 14 2 19 5 13 2 -7 2
-19 0 -25z m30 0 c-3 -7 -5 -2 -5 12 0 14 2 19 5 13 2 -7 2 -19 0 -25z m450
-180 c-3 -7 -5 -2 -5 12 0 14 2 19 5 13 2 -7 2 -19 0 -25z"/>
<path d="M1663 4697 c7 -35 111 -282 119 -285 5 -2 8 -10 8 -19 0 -13 100
-271 180 -463 74 -179 249 -528 326 -650 36 -58 69 -107 73 -110 4 -3 15 -16
24 -29 16 -24 16 -24 15 20 0 24 1 76 2 116 2 42 -1 77 -7 85 -14 17 -93 209
-93 226 0 6 -4 12 -9 12 -5 0 -11 10 -14 23 -3 12 -32 94 -66 181 -34 88 -61
165 -61 171 0 6 -11 35 -25 63 -14 29 -25 59 -25 68 0 9 -15 55 -34 103 -18
47 -48 127 -66 176 -49 134 -72 175 -134 233 -58 55 -114 85 -180 95 -35 6
-38 5 -33 -16z"/>
<path d="M9076 4702 c-63 -8 -162 -92 -210 -179 -13 -23 -20 -43 -15 -45 6 -2
-4 -21 -20 -43 -17 -22 -31 -50 -31 -62 0 -13 -4 -23 -10 -23 -5 0 -10 -9 -10
-21 0 -11 -9 -39 -19 -62 -11 -24 -23 -56 -27 -72 -4 -17 -11 -35 -16 -42 -5
-6 -20 -44 -33 -85 -13 -40 -30 -90 -39 -110 -9 -21 -15 -39 -15 -40 3 -4 -20
-78 -31 -103 -5 -11 -19 -45 -30 -75 -12 -30 -32 -77 -45 -105 -13 -27 -41
-93 -61 -145 -20 -52 -43 -106 -52 -120 -10 -16 -15 -43 -13 -75 1 -27 3 -79
3 -114 l0 -64 34 54 c19 30 39 56 44 57 6 2 10 7 10 12 0 4 18 34 39 66 41 61
181 335 181 354 0 5 5 10 10 10 6 0 10 8 10 18 0 9 9 32 21 51 11 18 18 40 15
47 -3 8 1 14 9 14 8 0 15 5 15 11 0 6 7 25 15 42 63 136 125 295 125 320 0 10
4 16 8 13 12 -7 57 133 57 181 0 37 2 41 13 26 6 -9 13 -14 13 -10 1 4 3 12 4
17 1 6 3 22 4 36 0 14 5 23 10 20 5 -4 13 8 16 26 4 18 11 38 15 43 12 15 70
156 70 169 0 12 -17 15 -64 8z m-109 -364 c-3 -8 -6 -5 -6 6 -1 11 2 17 5 13
3 -3 4 -12 1 -19z m-60 -165 c-3 -10 -5 -4 -5 12 0 17 2 24 5 18 2 -7 2 -21 0
-30z"/>
<path d="M2130 4423 c0 -23 226 -654 299 -838 16 -38 34 -87 41 -107 6 -21 14
-38 17 -38 3 0 20 12 38 28 19 15 44 34 56 43 21 15 22 19 12 50 -21 64 -36
104 -44 121 -5 9 -45 126 -90 260 -44 134 -94 271 -111 306 -37 78 -112 157
-165 171 -45 13 -53 13 -53 4z"/>
<path d="M8642 4423 c-13 -3 -26 -11 -29 -19 -3 -8 -12 -14 -20 -14 -41 0
-163 -171 -163 -229 0 -12 -4 -21 -8 -21 -5 0 -16 -28 -26 -62 -31 -105 -56
-182 -65 -198 -4 -8 -20 -55 -35 -105 -15 -49 -34 -103 -41 -120 -7 -16 -21
-52 -30 -79 l-16 -48 53 -48 c52 -47 53 -47 65 -26 7 11 17 37 23 56 6 19 20
53 30 75 34 72 60 162 54 181 -4 13 -3 15 3 7 6 -9 16 7 32 50 57 154 95 263
145 412 30 88 57 168 61 178 4 9 3 16 -1 16 -5 -1 -19 -4 -32 -6z"/>
</g>
</svg>
